<?xml version="1.0" encoding="utf-8"?>
<!-- Generator: Adobe Illustrator 25.2.1, SVG Export Plug-In . SVG Version: 6.00 Build 0)  -->
<svg version="1.1" id="Camada_1" xmlns="http://www.w3.org/2000/svg" xmlns:xlink="http://www.w3.org/1999/xlink" x="0px" y="0px"
	 viewBox="0 0 100 100" style="enable-background:new 0 0 100 100;" xml:space="preserve">
<style type="text/css">
	.st0{fill:#e0afa0;}
	.st1{fill:none;stroke:#f4f3ee;stroke-miterlimit:10;}
</style>
<g>
	<g>
		<path class="st0" d="M55.87,72.67c0,0,3.32-9.73,15.06-8.11C70.94,64.56,67.46,76.07,55.87,72.67z"/>
		<path class="st0" d="M48.97,86.69c0,0,5.61-8.62,16.6-4.16C65.56,82.53,59.37,92.84,48.97,86.69z"/>
		<path class="st0" d="M49.31,58.67c0,0,9.15,4.7,5.85,16.08C55.15,74.75,44.27,69.64,49.31,58.67z"/>
		<path class="st0" d="M54.25,45.61c0,0,9.15,4.7,5.85,16.08C60.1,61.69,49.21,56.59,54.25,45.61z"/>
		<path class="st0" d="M75.51,43.23c0,0-1.71,10.14-13.56,10.43C61.95,53.65,63.53,41.73,75.51,43.23z"/>
		<path class="st0" d="M69.11,27c0,0,4.54,9.23-4.9,16.39C64.22,43.39,58.52,32.8,69.11,27z"/>
		<path class="st1" d="M64.23,41.49c0,0-4.88,35.84-21.25,52.43"/>
	</g>
	<path class="st0" d="M12.25,97.33c0,0,13.8,3.48,13.8-10.82s0-74.56,0-74.56s0.82-9.37-13.8-9.37V0h43.26v2.57
		c0,0-16.07-0.62-16.07,9.37s0,74.56,0,74.56s-0.62,7.19,16.07,7.19s28.43,1.98,36.46-21.09l2.27,0.84l-7.83,26.66H12.25V97.33z"/>
</g>
</svg>
